<mxfile host="app.diagrams.net" modified="2021-01-12T15:07:57.955Z" agent="5.0 (Macintosh; Intel Mac OS X 10_15_6) AppleWebKit/605.1.15 (KHTML, like Gecko) Version/14.0.2 Safari/605.1.15" etag="48vAI2d4ZQHj2zCqOqyG" version="14.1.9" type="github">
  <diagram id="RqwJ5jv-wv5ZjoL2Revk" name="Page-1">
    <mxGraphModel dx="946" dy="645" grid="1" gridSize="10" guides="1" tooltips="1" connect="1" arrows="1" fold="1" page="1" pageScale="1" pageWidth="850" pageHeight="1100" math="0" shadow="0">
      <root>
        <mxCell id="0" />
        <mxCell id="1" parent="0" />
        <mxCell id="2NPV47kmxNuZpTJhnD04-5" style="edgeStyle=orthogonalEdgeStyle;rounded=0;orthogonalLoop=1;jettySize=auto;html=1;exitX=1;exitY=0.5;exitDx=0;exitDy=0;entryX=0;entryY=0.5;entryDx=0;entryDy=0;strokeWidth=2;fillColor=#ffe6cc;strokeColor=#d79b00;" edge="1" parent="1" source="2NPV47kmxNuZpTJhnD04-1" target="2NPV47kmxNuZpTJhnD04-2">
          <mxGeometry relative="1" as="geometry" />
        </mxCell>
        <mxCell id="2NPV47kmxNuZpTJhnD04-6" style="edgeStyle=orthogonalEdgeStyle;rounded=0;orthogonalLoop=1;jettySize=auto;html=1;exitX=0.5;exitY=1;exitDx=0;exitDy=0;entryX=0.5;entryY=0;entryDx=0;entryDy=0;strokeWidth=2;fillColor=#f8cecc;strokeColor=#b85450;" edge="1" parent="1" source="2NPV47kmxNuZpTJhnD04-1" target="2NPV47kmxNuZpTJhnD04-3">
          <mxGeometry relative="1" as="geometry" />
        </mxCell>
        <mxCell id="2NPV47kmxNuZpTJhnD04-7" style="edgeStyle=orthogonalEdgeStyle;rounded=0;orthogonalLoop=1;jettySize=auto;html=1;exitX=0.5;exitY=1;exitDx=0;exitDy=0;strokeWidth=2;fillColor=#f8cecc;strokeColor=#b85450;" edge="1" parent="1" source="2NPV47kmxNuZpTJhnD04-1" target="2NPV47kmxNuZpTJhnD04-4">
          <mxGeometry relative="1" as="geometry" />
        </mxCell>
        <mxCell id="2NPV47kmxNuZpTJhnD04-1" value="Direktur Utama&lt;br&gt;CEO" style="rounded=1;whiteSpace=wrap;html=1;fillColor=#dae8fc;strokeColor=#6c8ebf;fontStyle=1;strokeWidth=2;" vertex="1" parent="1">
          <mxGeometry x="180" y="130" width="140" height="50" as="geometry" />
        </mxCell>
        <mxCell id="2NPV47kmxNuZpTJhnD04-2" value="Direktur Utama&lt;br&gt;CEO" style="rounded=1;whiteSpace=wrap;html=1;fillColor=#ffe6cc;strokeColor=#d79b00;fontStyle=1;strokeWidth=2;" vertex="1" parent="1">
          <mxGeometry x="400" y="130" width="140" height="50" as="geometry" />
        </mxCell>
        <mxCell id="2NPV47kmxNuZpTJhnD04-3" value="Direktur Utama&lt;br&gt;CEO" style="rounded=1;whiteSpace=wrap;html=1;fillColor=#f8cecc;strokeColor=#b85450;fontStyle=1;strokeWidth=2;" vertex="1" parent="1">
          <mxGeometry x="80" y="250" width="140" height="50" as="geometry" />
        </mxCell>
        <mxCell id="2NPV47kmxNuZpTJhnD04-4" value="Direktur Utama&lt;br&gt;CEO" style="rounded=1;whiteSpace=wrap;html=1;fillColor=#f8cecc;strokeColor=#b85450;fontStyle=1;strokeWidth=2;" vertex="1" parent="1">
          <mxGeometry x="285" y="250" width="140" height="50" as="geometry" />
        </mxCell>
        <mxCell id="2NPV47kmxNuZpTJhnD04-8" value="Direktur Utama&lt;br&gt;CEO" style="rounded=1;whiteSpace=wrap;html=1;fillColor=#fff2cc;strokeColor=#d6b656;fontStyle=1;strokeWidth=2;" vertex="1" parent="1">
          <mxGeometry x="160" y="350" width="140" height="50" as="geometry" />
        </mxCell>
        <mxCell id="2NPV47kmxNuZpTJhnD04-9" value="Direktur Utama&lt;br&gt;CEO" style="rounded=1;whiteSpace=wrap;html=1;fillColor=#fff2cc;strokeColor=#d6b656;fontStyle=1;strokeWidth=2;" vertex="1" parent="1">
          <mxGeometry x="330" y="350" width="140" height="50" as="geometry" />
        </mxCell>
      </root>
    </mxGraphModel>
  </diagram>
</mxfile>
